<svg width="500" height="500" viewBox="0 0 500 500" fill="none" xmlns="http://www.w3.org/2000/svg">
<g clip-path="url(#clip0_9604_970)">
<rect width="500" height="500" fill="black"/>
<path d="M134.4 424.72C97.2 424.72 69.92 403.64 67.44 375.12L94.72 367.68C95.96 386.28 113.32 401.16 135.64 401.16C153 401.16 166.64 391.86 166.64 378.84C166.64 344.12 74.88 357.76 74.88 305.68C74.88 280.26 97.2 262.28 129.44 262.28C161.68 262.28 185.55 279.95 188.96 304.44L162.92 311.26C162.3 296.07 148.66 285.22 130.06 285.22C113.32 285.22 101.54 293.9 101.54 305.68C101.54 339.16 193.92 325.52 193.92 378.84C193.92 405.5 169.12 424.72 134.4 424.72ZM229.897 251.12C229.897 210.82 270.817 197.18 298.097 213.3L290.657 237.48C275.777 227.56 254.697 231.59 254.697 251.12V272.51H291.897V296.69H254.697V421H229.897V296.69H206.337V272.51H229.897V251.12Z" fill="#EDE8E0"/>
</g>
<defs>
<clipPath id="clip0_9604_970">
<rect width="500" height="500" fill="white"/>
</clipPath>
</defs>
</svg>
